<svg id="Flat" height="512" viewBox="0 0 512 512" width="512" xmlns="http://www.w3.org/2000/svg"><path d="m424 448h-336a64 64 0 0 1 -64-64v-304h336v304a64 64 0 0 0 64 64z" fill="#e9eef2"/><path d="m488 160v224a64 64 0 0 1 -128 0v-256h96a32 32 0 0 1 32 32z" fill="#9aa3a8"/><path d="m112 104a8 8 0 0 0 -8 8v30.111l-16.845-33.689a8 8 0 0 0 -15.155 3.578v64a8 8 0 0 0 16 0v-30.111l16.845 33.689a8 8 0 0 0 15.155-3.578v-64a8 8 0 0 0 -8-8z" fill="#9aa3a8"/><path d="m160 120a8 8 0 0 0 0-16h-16a8 8 0 0 0 -8 8v64a8 8 0 0 0 8 8h16a8 8 0 0 0 0-16h-8v-16h8a8 8 0 0 0 0-16h-8v-16z" fill="#9aa3a8"/><path d="m240 104a8 8 0 0 0 -8 8v30.111l-8.845-17.689a8 8 0 0 0 -14.31 0l-8.845 17.689v-30.111a8 8 0 0 0 -16 0v64a8 8 0 0 0 15.155 3.578l16.845-33.689 16.845 33.689a8 8 0 0 0 15.155-3.578v-64a8 8 0 0 0 -8-8z" fill="#9aa3a8"/><path d="m288 136a8 8 0 1 1 8-8 8 8 0 0 0 16 0 24 24 0 1 0 -24 24 8 8 0 1 1 -8 8 8 8 0 0 0 -16 0 24 24 0 1 0 24-24z" fill="#9aa3a8"/><path d="m24 200h336v16h-336z" fill="#9aa3a8"/><path d="m424 272h-64v-144h96a32 32 0 0 0 -32 32z" fill="#dadcde"/><g fill="#9aa3a8"><path d="m64 248h112v64h-112z"/><path d="m64 344h112v64h-112z"/><path d="m288 256h-80a8 8 0 0 1 0-16h80a8 8 0 0 1 0 16z"/><path d="m320 288h-64a8 8 0 0 1 0-16h64a8 8 0 0 1 0 16z"/><path d="m320 320h-112a8 8 0 0 1 0-16h112a8 8 0 0 1 0 16z"/><path d="m224 288h-16a8 8 0 0 1 0-16h16a8 8 0 0 1 0 16z"/><path d="m288 352h-80a8 8 0 0 1 0-16h80a8 8 0 0 1 0 16z"/><path d="m320 384h-64a8 8 0 0 1 0-16h64a8 8 0 0 1 0 16z"/><path d="m320 416h-112a8 8 0 0 1 0-16h112a8 8 0 0 1 0 16z"/><path d="m224 384h-16a8 8 0 0 1 0-16h16a8 8 0 0 1 0 16z"/></g></svg>