<svg xmlns="http://www.w3.org/2000/svg" width="464" height="368" viewBox="0 0 464 368">
  <g id="Group_53" data-name="Group 53" transform="translate(-9188 -4311)">
    <path id="Path_101" data-name="Path 101" d="M424,448H88a64,64,0,0,1-64-64V80H360V384A64,64,0,0,0,424,448Z" transform="translate(9164 4231)" fill="#d85c48"/>
    <path id="Path_102" data-name="Path 102" d="M488,160V384a64,64,0,0,1-128,0V128h96A32,32,0,0,1,488,160Z" transform="translate(9164 4231)" fill="#ffefdf"/>
    <path id="Path_103" data-name="Path 103" d="M112,104a8,8,0,0,0-8,8v30.111L87.155,108.422A8,8,0,0,0,72,112v64a8,8,0,0,0,16,0V145.889l16.845,33.689A8,8,0,0,0,120,176V112A8,8,0,0,0,112,104Z" transform="translate(9164 4231)" fill="#ffefdf"/>
    <path id="Path_104" data-name="Path 104" d="M160,120a8,8,0,0,0,0-16H144a8,8,0,0,0-8,8v64a8,8,0,0,0,8,8h16a8,8,0,0,0,0-16h-8V152h8a8,8,0,0,0,0-16h-8V120Z" transform="translate(9164 4231)" fill="#ffefdf"/>
    <path id="Path_105" data-name="Path 105" d="M240,104a8,8,0,0,0-8,8v30.111l-8.845-17.689a8,8,0,0,0-14.31,0L200,142.111V112a8,8,0,1,0-16,0v64a8,8,0,0,0,15.155,3.578L216,145.889l16.845,33.689A8,8,0,0,0,248,176V112A8,8,0,0,0,240,104Z" transform="translate(9164 4231)" fill="#ffefdf"/>
    <path id="Path_106" data-name="Path 106" d="M288,136a8,8,0,1,1,8-8,8,8,0,0,0,16,0,24,24,0,1,0-24,24,8,8,0,1,1-8,8,8,8,0,0,0-16,0,24,24,0,1,0,24-24Z" transform="translate(9164 4231)" fill="#ffefdf"/>
    <path id="Path_107" data-name="Path 107" d="M24,200H360v16H24Z" transform="translate(9164 4231)" fill="#ffefdf"/>
    <path id="Path_108" data-name="Path 108" d="M424,272H360V128h96a32,32,0,0,0-32,32Z" transform="translate(9164 4231)" fill="#ffdeb9"/>
    <g id="Group_52" data-name="Group 52" transform="translate(9164 4231)">
      <path id="Path_85" data-name="Path 85" d="M64,248H176v64H64Z" fill="#ffefdf"/>
      <path id="Path_86" data-name="Path 86" d="M64,344H176v64H64Z" fill="#ffefdf"/>
      <path id="Path_87" data-name="Path 87" d="M288,256H208a8,8,0,0,1,0-16h80a8,8,0,0,1,0,16Z" fill="#ffefdf"/>
      <path id="Path_88" data-name="Path 88" d="M320,288H256a8,8,0,0,1,0-16h64a8,8,0,0,1,0,16Z" fill="#ffefdf"/>
      <path id="Path_89" data-name="Path 89" d="M320,320H208a8,8,0,0,1,0-16H320a8,8,0,0,1,0,16Z" fill="#ffefdf"/>
      <path id="Path_90" data-name="Path 90" d="M224,288H208a8,8,0,0,1,0-16h16a8,8,0,0,1,0,16Z" fill="#ffefdf"/>
      <path id="Path_91" data-name="Path 91" d="M288,352H208a8,8,0,0,1,0-16h80a8,8,0,0,1,0,16Z" fill="#ffefdf"/>
      <path id="Path_92" data-name="Path 92" d="M320,384H256a8,8,0,0,1,0-16h64a8,8,0,0,1,0,16Z" fill="#ffefdf"/>
      <path id="Path_93" data-name="Path 93" d="M320,416H208a8,8,0,0,1,0-16H320a8,8,0,0,1,0,16Z" fill="#ffefdf"/>
      <path id="Path_94" data-name="Path 94" d="M224,384H208a8,8,0,0,1,0-16h16a8,8,0,0,1,0,16Z" fill="#ffefdf"/>
    </g>
  </g>
</svg>
