<svg xmlns="http://www.w3.org/2000/svg" width="256" height="208.045" viewBox="0 0 256 208.045">
  <g id="twitter" transform="translate(0 -0.822)">
    <path id="Path_95" data-name="Path 95" d="M256,25.45a105.014,105.014,0,0,1-30.166,8.27A52.679,52.679,0,0,0,248.927,4.663a105.183,105.183,0,0,1-33.351,12.745,52.57,52.57,0,0,0-89.5,47.9A149.108,149.108,0,0,1,17.821,10.436a52.577,52.577,0,0,0,16.255,70.12,52.312,52.312,0,0,1-23.79-6.569c0,.219,0,.439,0,.66a52.552,52.552,0,0,0,42.131,51.5,52.648,52.648,0,0,1-23.719.9,52.573,52.573,0,0,0,49.062,36.475A105.383,105.383,0,0,1,12.529,186,106.842,106.842,0,0,1,0,185.271a148.662,148.662,0,0,0,80.511,23.6c96.606,0,149.433-80.031,149.433-149.435q0-3.416-.152-6.794A106.748,106.748,0,0,0,256,25.45" fill="#d85c48"/>
  </g>
</svg>
