<svg xmlns="http://www.w3.org/2000/svg" width="173.229" height="228.097" viewBox="0 0 173.229 228.097">
  <g id="yelp" transform="translate(-27.434)">
    <path id="Path_96" data-name="Path 96" d="M173.22,68.06c8.2,6.784,30.709,25.392,27.042,38.455-1.7,5.867-8.434,7.746-13.43,9.579a247.918,247.918,0,0,1-35.339,9.9c-9.717,1.971-30.48,6.279-26.63-10.909,1.512-6.646,6.875-12.284,11.184-17.28,8.846-10.4,17.876-21.4,28.555-29.93a3.686,3.686,0,0,1,2.842-.733A5.469,5.469,0,0,1,173.22,68.06Z" fill="#d85c48"/>
    <path id="Path_97" data-name="Path 97" d="M161.119,205.2c-7.2-5.821-12.284-14.942-16.684-22.917-4.309-7.7-11.092-17.876-12.238-26.813-2.337-18.38,24.292-7.333,31.947-4.675,10.175,3.575,37.447,7.517,34.422,23.421-2.521,12.971-18.151,28.784-31.213,30.8a1.841,1.841,0,0,1-.5,0l-.137.137c-.367.183-.779.413-1.192.6A3.816,3.816,0,0,1,161.119,205.2Z" fill="#d85c48"/>
    <path id="Path_98" data-name="Path 98" d="M101.58,157.9c14.484-6,15.813,10.175,15.721,19.984-.137,11.688-.5,23.421-1.375,35.063-.321,4.721-.137,10.4-4.629,13.384-5.546,3.667-16.225.779-21.955-1.008a2.793,2.793,0,0,0-.55-.229C76.738,222.982,62.025,217.436,60.6,206.3A4.248,4.248,0,0,1,61.75,203a19.332,19.332,0,0,1,1.146-1.925,77.257,77.257,0,0,1,5.913-6.921c3.483-5.179,7.242-10.175,11.229-14.988C85.813,172.2,92.917,161.471,101.58,157.9Z" fill="#d85c48"/>
    <path id="Path_99" data-name="Path 99" d="M103.689,107.661C82.559,90.29,61.979,63.385,51.345,38.5,43.232,19.567,63.858,8.017,79.762,2.792c21.451-7.059,29.976-.917,32.13,20.534a536.663,536.663,0,0,1,2.475,55.643c-.046,7.838,2.154,20.488-2.429,27.547.733,2.888-3.621,4.95-6.1,2.979-.367-.275-.733-.642-1.146-.963A4.416,4.416,0,0,1,103.689,107.661Z" fill="#d85c48"/>
    <path id="Path_100" data-name="Path 100" d="M101.4,134.566c1.7,7.517-3.621,10.542-9.854,13.384a248.025,248.025,0,0,1-34.422,12.284c-6.784,1.879-17.188,6.371-23.742,1.375-4.95-3.758-5.271-11.6-5.729-17.28-1.008-12.7.917-42.993,18.517-44.276,8.617-.6,19.388,7.1,26.447,11.138,9.4,5.409,19.48,11.6,26.492,20.076A4.8,4.8,0,0,1,101.4,134.566Z" fill="#d85c48"/>
  </g>
</svg>
